<svg width="20" height="20" viewBox="0 0 20 20" fill="none" xmlns="http://www.w3.org/2000/svg">
<g clip-path="url(#clip0_2802_7)">
<path d="M12.1083 7.89167L7.89161 12.1083C7.33245 11.5492 7.01831 10.7908 7.01831 10C7.01831 9.60845 7.09543 9.22073 7.24527 8.85898C7.39512 8.49723 7.61474 8.16854 7.89161 7.89167C8.16848 7.6148 8.49717 7.39518 8.85892 7.24533C9.22067 7.09549 9.60839 7.01837 9.99994 7.01837C10.7907 7.01837 11.5491 7.33251 12.1083 7.89167V7.89167Z" stroke="#AFB6C2" stroke-width="1.5" stroke-linecap="round" stroke-linejoin="round"/>
<path d="M14.85 4.80834C13.3917 3.70834 11.725 3.10834 9.99999 3.10834C7.05832 3.10834 4.31666 4.84167 2.40833 7.84167C1.65833 9.01667 1.65833 10.9917 2.40833 12.1667C3.06666 13.2 3.83332 14.0917 4.66666 14.8083M7.01666 16.275C7.96666 16.675 8.97499 16.8917 9.99999 16.8917C12.9417 16.8917 15.6833 15.1583 17.5917 12.1583C18.3417 10.9833 18.3417 9.00834 17.5917 7.83334C17.3167 7.4 17.0167 6.99167 16.7083 6.60834" stroke="#AFB6C2" stroke-width="1.5" stroke-linecap="round" stroke-linejoin="round"/>
<path d="M12.925 10.5834C12.8121 11.1647 12.528 11.699 12.1093 12.1177C11.6906 12.5364 11.1563 12.8205 10.575 12.9334M7.89163 12.1084L1.66663 18.3334M18.3333 1.66669L12.1083 7.89169" stroke="#AFB6C2" stroke-width="1.5" stroke-linecap="round" stroke-linejoin="round"/>
</g>
<defs>
<clipPath id="clip0_2802_7">
<rect width="20" height="20" fill="white"/>
</clipPath>
</defs>
</svg>
